/* XPM */
static char * title_active_xpm[] = {
"1 31 3 1",
" 	c None",
".	c #1BA1E2",
"+	c #E7E8EB",
".",
"+",
"+",
"+",
"+",
"+",
"+",
"+",
"+",
"+",
"+",
"+",
"+",
"+",
"+",
"+",
"+",
"+",
"+",
"+",
"+",
"+",
"+",
"+",
"+",
"+",
"+",
"+",
"+",
"+",
"+"};
